<?xml version="1.0" standalone="no"?>
<!DOCTYPE svg PUBLIC "-//W3C//DTD SVG 20010904//EN"
 "http://www.w3.org/TR/2001/REC-SVG-20010904/DTD/svg10.dtd">
<svg version="1.0" xmlns="http://www.w3.org/2000/svg"
 width="300.000000pt" height="191.000000pt" viewBox="0 0 300.000000 191.000000"
 preserveAspectRatio="xMidYMid meet">
<metadata>
Created by potrace 1.10, written by Peter Selinger 2001-2011
</metadata>
<g transform="translate(0.000000,191.000000) scale(0.100000,-0.100000)"
fill="#000000" stroke="none">
<path d="M780 1760 c11 -7 2 -10 -32 -10 -27 0 -48 -4 -48 -10 0 -5 -11 -10
-24 -10 -14 0 -31 -7 -40 -15 -8 -8 -22 -15 -30 -15 -9 0 -16 -4 -16 -10 0 -5
-9 -10 -20 -10 -11 0 -20 -4 -20 -8 0 -5 -16 -14 -35 -22 -19 -8 -35 -17 -35
-22 0 -4 -4 -8 -9 -8 -10 0 -121 -107 -121 -116 0 -3 -16 -21 -35 -40 -19 -18
-35 -40 -35 -48 0 -8 -3 -16 -7 -18 -12 -5 -53 -91 -53 -111 0 -10 -4 -15 -10
-12 -6 4 -10 -10 -10 -34 0 -23 -4 -41 -9 -41 -4 0 -11 -23 -14 -51 -4 -28
-11 -56 -16 -63 -12 -15 -6 -148 8 -174 6 -11 11 -39 11 -61 0 -23 5 -41 10
-41 6 0 10 -16 10 -36 0 -21 4 -33 10 -29 6 3 10 -4 10 -18 0 -13 8 -35 18
-48 10 -13 27 -41 37 -62 11 -22 32 -52 47 -68 16 -16 28 -31 28 -35 0 -7 27
-34 35 -34 9 0 35 -27 35 -37 1 -4 25 -24 55 -43 30 -19 55 -38 55 -42 0 -5 9
-8 20 -8 11 0 20 -4 20 -10 0 -5 8 -10 18 -10 9 0 26 -7 36 -15 11 -8 28 -15
38 -15 10 0 18 -4 18 -10 0 -5 16 -10 35 -10 19 0 35 -4 35 -9 0 -5 28 -12 63
-16 118 -14 347 -3 347 16 0 5 14 9 30 9 17 0 30 4 30 9 0 5 16 12 35 15 19 4
35 11 35 16 0 6 7 10 15 10 43 0 295 208 295 244 0 6 -41 50 -92 99 l-93 87
-320 0 c-176 0 -337 3 -357 6 -31 5 -38 4 -38 -10 0 -9 5 -16 11 -16 6 0 24
-13 39 -30 15 -16 31 -30 34 -30 3 0 26 -20 52 -45 l45 -45 256 0 c229 0 255
-2 249 -16 -3 -9 -6 -20 -6 -25 0 -5 -7 -9 -15 -9 -9 0 -25 -9 -37 -20 -12
-11 -28 -20 -35 -20 -7 0 -13 -4 -13 -10 0 -5 -11 -10 -24 -10 -13 0 -26 -3
-28 -7 -5 -13 -77 -43 -103 -43 -13 0 -27 -4 -30 -10 -10 -16 -216 -12 -281 5
-32 8 -62 19 -68 25 -5 5 -20 10 -33 10 -13 0 -23 5 -23 10 0 6 -8 10 -18 10
-11 0 -27 9 -37 20 -10 11 -23 20 -29 20 -30 1 -186 176 -186 209 0 6 -4 11
-10 11 -5 0 -10 8 -10 18 0 10 -7 27 -15 38 -8 10 -15 29 -15 42 0 12 -4 22
-10 22 -6 0 -10 58 -10 155 0 97 4 155 10 155 6 0 10 8 10 19 0 31 53 134 93
181 9 11 17 27 17 35 0 8 5 15 11 15 6 0 26 15 45 33 51 49 76 66 139 96 81
39 114 51 139 51 14 0 26 5 26 10 0 6 50 10 130 10 72 0 130 -4 130 -9 0 -4
20 -11 44 -14 24 -4 61 -16 80 -27 20 -11 43 -20 51 -20 8 0 15 -4 15 -9 0 -5
13 -14 30 -21 36 -15 82 -59 74 -71 -3 -5 -122 -9 -265 -9 -171 0 -258 -3
-254 -10 3 -5 -1 -10 -10 -10 -9 0 -13 -4 -10 -10 3 -5 1 -10 -5 -10 -14 0
-40 -25 -40 -39 0 -6 -4 -11 -9 -11 -15 0 -101 -84 -101 -98 0 -7 74 -86 165
-177 91 -91 165 -170 165 -175 0 -6 3 -10 8 -10 4 -1 31 -23 60 -50 45 -40 58
-47 76 -40 24 9 151 6 184 -4 14 -5 22 -3 22 4 0 14 -52 65 -75 74 -8 3 -15
10 -15 16 0 15 -22 39 -183 200 -88 88 -143 151 -137 155 6 4 69 6 139 6 l127
-2 30 29 c16 16 53 54 81 85 55 58 95 76 101 45 2 -10 -12 -31 -34 -50 -21
-18 -55 -51 -76 -73 l-38 -39 0 -126 c0 -132 7 -200 21 -200 9 0 59 -48 59
-56 0 -2 16 -20 35 -40 19 -19 42 -46 51 -59 9 -14 20 -25 25 -25 5 0 22 -13
37 -30 16 -16 34 -30 41 -30 6 0 11 -4 11 -9 0 -5 16 -26 35 -46 l36 -36 214
-3 c132 -2 218 0 221 6 4 6 -8 23 -25 38 -17 16 -31 34 -31 39 0 6 -6 11 -13
11 -14 0 -47 35 -47 50 0 6 -7 10 -15 10 -8 0 -15 5 -15 10 0 6 -80 10 -219
10 -121 0 -222 4 -225 9 -3 5 -8 52 -10 105 -3 82 -2 98 13 104 9 5 58 6 110
3 112 -7 126 4 68 54 -20 18 -37 36 -37 41 0 5 -12 17 -26 28 -20 14 -37 17
-75 14 -57 -6 -59 -2 -56 92 l2 55 218 2 c120 0 220 3 223 5 2 2 -32 41 -76
86 l-80 82 -85 0 c-61 0 -85 3 -85 13 0 15 -145 167 -160 167 -6 0 -20 8 -31
19 -19 17 -71 45 -149 79 -19 8 -43 19 -52 23 -10 5 -35 9 -55 10 -31 0 -34 2
-18 9 12 5 -57 9 -175 9 -129 1 -190 -3 -180 -9z m290 -34 c81 -13 165 -40
232 -77 10 -5 22 -9 27 -9 21 0 101 -63 186 -147 l91 -90 64 -2 c35 -1 73 -7
84 -13 23 -12 66 -57 66 -69 0 -4 -74 -9 -164 -11 l-164 -3 -26 -28 c-22 -23
-26 -37 -26 -86 0 -79 24 -111 83 -111 26 -1 51 -8 65 -19 37 -31 27 -41 -41
-41 -85 0 -107 -22 -108 -104 -1 -57 -1 -57 -22 -39 -75 65 -77 77 -69 315 2
44 7 54 67 119 36 39 65 77 65 86 0 47 -145 181 -214 199 -14 3 -26 10 -26 15
0 5 -11 9 -25 9 -15 0 -40 7 -58 17 -23 12 -67 18 -158 21 -115 4 -135 2 -219
-22 -183 -52 -315 -159 -408 -327 -51 -92 -63 -138 -69 -249 -6 -129 11 -216
62 -326 31 -64 54 -96 129 -169 140 -139 258 -190 449 -194 136 -3 217 14 318
66 146 75 183 122 133 168 l-27 25 -229 0 -230 0 -44 37 c-26 21 -41 40 -36
45 5 5 133 10 285 10 l275 2 54 -46 c96 -84 108 -95 108 -102 0 -13 -125 -128
-176 -162 -72 -48 -185 -93 -285 -113 -99 -20 -229 -15 -338 13 -66 18 -204
80 -232 106 -9 8 -29 24 -43 35 -75 57 -170 176 -208 262 -11 24 -31 87 -45
141 -20 79 -24 111 -20 172 15 194 90 362 217 489 48 48 150 121 169 121 4 0
12 5 19 12 12 12 52 28 137 55 42 13 95 21 215 32 8 0 58 -6 110 -13z m209
-331 c37 11 31 -13 -15 -57 l-45 -43 -108 -1 c-148 -2 -171 -10 -171 -65 0
-20 39 -66 174 -205 96 -98 170 -181 165 -185 -6 -3 -36 -5 -67 -3 l-56 3
-203 208 -203 208 68 63 c37 34 78 67 92 73 15 6 84 9 167 8 78 -2 146 0 149
4 4 4 13 2 20 -4 7 -6 22 -8 33 -4z m517 -675 l110 0 43 -42 c33 -33 39 -44
26 -48 -8 -3 -81 -4 -162 -3 -143 2 -147 3 -170 27 -13 15 -28 26 -32 26 -5 0
-11 9 -14 21 -5 18 -2 20 19 16 13 -2 24 0 24 6 0 5 10 7 23 3 12 -3 72 -6
133 -6z"/>
<path d="M1658 523 c-48 -8 -73 -67 -45 -105 7 -9 32 -24 55 -33 33 -13 42
-22 42 -40 0 -31 -16 -40 -65 -40 -58 0 -54 -19 4 -23 40 -2 55 1 75 19 46 40
26 90 -47 123 -29 13 -37 23 -35 38 4 31 33 46 58 30 28 -17 32 -15 28 11 -3
23 -20 28 -70 20z"/>
<path d="M1827 498 c-36 -33 -40 -47 -38 -130 2 -60 40 -88 118 -88 49 0 63 3
63 15 0 8 4 15 8 15 15 0 32 49 32 90 0 44 -26 95 -55 109 -11 5 -36 12 -56
15 -31 6 -41 2 -72 -26z m117 -24 c22 -22 26 -36 26 -82 0 -61 -23 -92 -68
-92 -28 0 -62 26 -62 47 0 7 -6 22 -12 33 -10 16 -10 24 0 40 6 11 12 27 12
35 0 48 63 59 104 19z"/>
<path d="M2145 523 c-10 -3 -34 -20 -52 -38 -30 -30 -33 -38 -33 -94 0 -34 4
-61 10 -61 6 0 10 -5 10 -11 0 -26 30 -39 89 -39 34 0 61 4 61 10 0 6 -20 10
-45 10 -63 0 -85 26 -85 101 0 53 3 59 30 79 23 16 38 20 61 15 22 -5 34 -3
40 6 15 24 -30 36 -86 22z"/>
<path d="M2295 513 c-6 -10 -9 -61 -9 -113 2 -124 2 -120 19 -120 13 0 15 21
15 125 0 122 -5 143 -25 108z"/>
<path d="M2433 523 l-42 -4 -3 -120 -3 -119 68 0 c38 0 67 4 67 10 0 6 -20 10
-45 10 l-45 0 0 44 c0 44 0 45 38 48 20 2 35 7 32 13 -3 6 -20 9 -37 7 -33 -4
-33 -3 -33 42 l0 46 45 0 c45 0 60 12 29 24 -9 3 -19 5 -22 4 -4 -1 -26 -3
-49 -5z"/>
<path d="M2555 521 c-9 -9 8 -21 30 -21 31 0 35 -15 35 -126 0 -77 3 -94 15
-94 8 0 15 7 15 16 0 8 5 12 10 9 6 -3 10 1 10 10 0 9 -4 13 -10 10 -17 -10
-13 144 4 161 23 22 83 18 91 -6 3 -11 11 -20 16 -20 5 0 9 -7 9 -15 0 -8 5
-15 10 -15 6 0 10 -9 10 -20 0 -11 5 -20 10 -20 6 0 10 -25 10 -55 0 -42 3
-55 15 -55 11 0 15 12 15 45 0 25 5 45 10 45 6 0 10 6 10 14 0 7 16 40 35 71
19 32 32 62 28 67 -9 15 -43 -25 -58 -68 -7 -21 -19 -40 -27 -42 -13 -2 -48
60 -48 86 0 6 -10 14 -22 17 -27 7 -218 12 -223 6z"/>
</g>
</svg>
