<?xml version="1.0" encoding="UTF-8"?>
<svg version="1.1" xmlns="http://www.w3.org/2000/svg" width="460" height="162">
<path d="M0 0 C0.66273926 0.30478271 1.32547852 0.60956543 2.00830078 0.92358398 C3.49665688 1.62907699 4.95262519 2.40238724 6.3984375 3.19140625 C10.07667804 4.07946432 12.00571241 2.58301351 15.29296875 0.83203125 C51.75104598 -17.52332677 93.83026135 -18.70682027 132.27197266 -6.10595703 C171.86699938 7.64455293 203.9452914 38.27232747 222.35546875 75.546875 C232.96220651 97.84325892 239.58059041 122.95944882 238.79296875 147.76953125 C238.13296875 147.76953125 237.47296875 147.76953125 236.79296875 147.76953125 C236.69592651 146.70762573 236.69592651 146.70762573 236.59692383 145.62426758 C232.81644125 105.44731068 221.36411805 70.66968802 194.79296875 39.76953125 C194.18710937 39.04121094 193.58125 38.31289063 192.95703125 37.5625 C188.93752561 32.80638813 184.61805011 28.70048234 179.79296875 24.76953125 C178.84550781 23.99609375 177.89804687 23.22265625 176.921875 22.42578125 C144.85289468 -3.23841678 104.45720417 -15.24640775 63.5 -10.734375 C58.8840321 -10.11111601 54.3376057 -9.24638759 49.79296875 -8.23046875 C49.04644043 -8.06417969 48.29991211 -7.89789062 47.53076172 -7.7265625 C36.88628888 -5.25695334 27.16675942 -1.45308109 17.29296875 3.1953125 C13.79296875 4.76953125 13.79296875 4.76953125 11.79296875 4.76953125 C14.27734902 7.50401691 17.05441936 9.29956435 20.16796875 11.26953125 C58.31734779 36.47291163 81.36024569 75.9495916 90.50390625 120.2109375 C92.07713508 129.31970443 92.39972769 138.54906331 92.79296875 147.76953125 C92.13296875 147.76953125 91.47296875 147.76953125 90.79296875 147.76953125 C90.68807129 146.77493896 90.68807129 146.77493896 90.58105469 145.76025391 C86.0098183 103.2154188 73.7850473 66.50176453 43.79296875 34.76953125 C43.05820312 33.9703125 42.3234375 33.17109375 41.56640625 32.34765625 C32.07023202 22.37508532 20.60492812 13.06678368 7.79296875 7.76953125 C-0.86008836 13.39978707 -9.35221338 19.04232182 -17.20703125 25.76953125 C-18.56248047 26.92388672 -18.56248047 26.92388672 -19.9453125 28.1015625 C-26.45119855 33.81558414 -31.92941616 39.91905421 -37.20703125 46.76953125 C-37.93535156 47.67058594 -38.66367188 48.57164063 -39.4140625 49.5 C-61.4681113 77.50207598 -71.34704653 112.62223377 -73.20703125 147.76953125 C-73.86703125 147.76953125 -74.52703125 147.76953125 -75.20703125 147.76953125 C-77.25994773 111.04513642 -61.43964885 70.72655882 -37.82421875 42.96875 C-36.32729287 41.29675991 -34.81373241 39.63946199 -33.28125 38 C-31.38223038 35.95792806 -29.6086547 33.85501543 -27.83203125 31.70703125 C-19.47404724 22.13858059 -7.35509055 12.86073891 3.79296875 6.76953125 C4.45296875 6.76953125 5.11296875 6.76953125 5.79296875 6.76953125 C5.79296875 6.10953125 5.79296875 5.44953125 5.79296875 4.76953125 C4.94347656 4.49753906 4.09398437 4.22554687 3.21875 3.9453125 C-0.26355236 2.75013233 -3.62286448 1.3763661 -7.01953125 -0.04296875 C-43.0376036 -14.62320635 -83.93579053 -16.13470197 -120.13037109 -1.00878906 C-131.39742474 3.95475079 -142.37412228 9.29837278 -152.20703125 16.76953125 C-153.05910156 17.4140625 -153.91117187 18.05859375 -154.7890625 18.72265625 C-173.96877513 33.68931372 -188.94685604 51.25696651 -200.20703125 72.76953125 C-200.71363281 73.73366943 -200.71363281 73.73366943 -201.23046875 74.71728516 C-213.16834987 97.80205058 -217.34269553 122.08721887 -219.20703125 147.76953125 C-219.86703125 147.76953125 -220.52703125 147.76953125 -221.20703125 147.76953125 C-222.90763163 105.63243289 -204.51832931 65.24397035 -176.64453125 34.45703125 C-131.72488926 -13.94408036 -59.71760315 -27.9594738 0 0 Z " fill="#E7E7E7" transform="translate(221.20703125,14.23046875)"/>
</svg>
