<svg width="24" height="25" viewBox="0 0 24 25" fill="none" xmlns="http://www.w3.org/2000/svg">
<path d="M19.95 21.8125C17.8667 21.8125 15.8083 21.3583 13.775 20.45C11.7417 19.5417 9.89167 18.2542 8.225 16.5875C6.55833 14.9208 5.27083 13.0708 4.3625 11.0375C3.45417 9.00417 3 6.94583 3 4.8625C3 4.5625 3.1 4.3125 3.3 4.1125C3.5 3.9125 3.75 3.8125 4.05 3.8125H8.1C8.33333 3.8125 8.54167 3.89167 8.725 4.05C8.90833 4.20833 9.01667 4.39583 9.05 4.6125L9.7 8.1125C9.73333 8.37917 9.725 8.60417 9.675 8.7875C9.625 8.97083 9.53333 9.12917 9.4 9.2625L6.975 11.7125C7.30833 12.3292 7.70417 12.925 8.1625 13.5C8.62083 14.075 9.125 14.6292 9.675 15.1625C10.1917 15.6792 10.7333 16.1583 11.3 16.6C11.8667 17.0417 12.4667 17.4458 13.1 17.8125L15.45 15.4625C15.6 15.3125 15.7958 15.2 16.0375 15.125C16.2792 15.05 16.5167 15.0292 16.75 15.0625L20.2 15.7625C20.4333 15.8292 20.625 15.95 20.775 16.125C20.925 16.3 21 16.4958 21 16.7125V20.7625C21 21.0625 20.9 21.3125 20.7 21.5125C20.5 21.7125 20.25 21.8125 19.95 21.8125Z" fill="#E8EAED"/>
</svg>
