<svg width="16" height="21" viewBox="0 0 16 21" fill="none" xmlns="http://www.w3.org/2000/svg">
<path d="M8 20.1375C7.76667 20.1375 7.53333 20.0958 7.3 20.0125C7.06667 19.9292 6.85833 19.8042 6.675 19.6375C5.59167 18.6375 4.63333 17.6625 3.8 16.7125C2.96667 15.7625 2.27083 14.8417 1.7125 13.95C1.15417 13.0583 0.729167 12.2 0.4375 11.375C0.145833 10.55 0 9.7625 0 9.0125C0 6.5125 0.804167 4.52083 2.4125 3.0375C4.02083 1.55417 5.88333 0.8125 8 0.8125C10.1167 0.8125 11.9792 1.55417 13.5875 3.0375C15.1958 4.52083 16 6.5125 16 9.0125C16 9.7625 15.8542 10.55 15.5625 11.375C15.2708 12.2 14.8458 13.0583 14.2875 13.95C13.7292 14.8417 13.0333 15.7625 12.2 16.7125C11.3667 17.6625 10.4083 18.6375 9.325 19.6375C9.14167 19.8042 8.93333 19.9292 8.7 20.0125C8.46667 20.0958 8.23333 20.1375 8 20.1375ZM8 10.8125C8.55 10.8125 9.02083 10.6167 9.4125 10.225C9.80417 9.83333 10 9.3625 10 8.8125C10 8.2625 9.80417 7.79167 9.4125 7.4C9.02083 7.00833 8.55 6.8125 8 6.8125C7.45 6.8125 6.97917 7.00833 6.5875 7.4C6.19583 7.79167 6 8.2625 6 8.8125C6 9.3625 6.19583 9.83333 6.5875 10.225C6.97917 10.6167 7.45 10.8125 8 10.8125Z" fill="#E8EAED"/>
</svg>
