<svg width="20" height="17" viewBox="0 0 20 17" fill="none" xmlns="http://www.w3.org/2000/svg">
<path d="M2 16.8125C1.45 16.8125 0.979167 16.6167 0.5875 16.225C0.195833 15.8333 0 15.3625 0 14.8125V2.8125C0 2.2625 0.195833 1.79167 0.5875 1.4C0.979167 1.00833 1.45 0.8125 2 0.8125H18C18.55 0.8125 19.0208 1.00833 19.4125 1.4C19.8042 1.79167 20 2.2625 20 2.8125V14.8125C20 15.3625 19.8042 15.8333 19.4125 16.225C19.0208 16.6167 18.55 16.8125 18 16.8125H2ZM10 9.6375C10.0833 9.6375 10.1708 9.625 10.2625 9.6C10.3542 9.575 10.4417 9.5375 10.525 9.4875L17.6 5.0625C17.7333 4.97917 17.8333 4.875 17.9 4.75C17.9667 4.625 18 4.4875 18 4.3375C18 4.00417 17.8583 3.75417 17.575 3.5875C17.2917 3.42083 17 3.42917 16.7 3.6125L10 7.8125L3.3 3.6125C3 3.42917 2.70833 3.425 2.425 3.6C2.14167 3.775 2 4.02083 2 4.3375C2 4.50417 2.03333 4.65 2.1 4.775C2.16667 4.9 2.26667 4.99583 2.4 5.0625L9.475 9.4875C9.55833 9.5375 9.64583 9.575 9.7375 9.6C9.82917 9.625 9.91667 9.6375 10 9.6375Z" fill="#E8EAED"/>
</svg>
